<svg width="270" height="270" viewBox="0 0 270 270" fill="none" xmlns="http://www.w3.org/2000/svg">
<ellipse cx="142" cy="131.5" rx="106" ry="66.5" fill="white"/>
<path fill-rule="evenodd" clip-rule="evenodd" d="M214.045 169.195C231.534 157.42 238 144.255 238 133.5C238 122.745 231.534 109.58 214.045 97.805C196.734 86.1489 171.171 78 141.5 78C111.829 78 86.2665 86.1489 68.9548 97.805C51.466 109.58 45 122.745 45 133.5C45 144.255 51.466 157.42 68.9548 169.195C86.2665 180.851 111.829 189 141.5 189C171.171 189 196.734 180.851 214.045 169.195ZM141.5 218C210.812 218 267 180.168 267 133.5C267 86.8319 210.812 49 141.5 49C72.1883 49 16 86.8319 16 133.5C16 180.168 72.1883 218 141.5 218Z" fill="url(#paint0_linear_241_512)"/>
<path d="M125.571 161.557H101.457C96.1767 161.557 92 165.806 92 171H116.114C121.316 171 125.571 166.751 125.571 161.557Z" fill="#60D7FF"/>
<path d="M135.027 143.457H101.457C96.1766 143.457 92 147.707 92 152.9H125.492C130.772 152.979 135.027 148.729 135.027 143.457Z" fill="#38A4FF"/>
<path d="M142.356 134.878H101.457C96.1766 134.878 92 130.629 92 125.435H132.9C138.101 125.435 142.356 129.685 142.356 134.878Z" fill="#227DFF"/>
<path d="M183.415 134.878H142.358C142.358 129.606 146.614 125.435 151.815 125.435H192.872C192.951 130.629 188.695 134.878 183.415 134.878Z" fill="#227DFF"/>
<path d="M159.142 161.557H183.256C188.536 161.557 192.713 165.806 192.713 171H168.678C163.397 171 159.142 166.751 159.142 161.557Z" fill="#60D7FF"/>
<path d="M149.689 143.457H183.181C188.461 143.457 192.638 147.707 192.638 152.9H159.224C153.945 152.979 149.689 148.729 149.689 143.457Z" fill="#38A4FF"/>
<path d="M125.571 98.4434H101.457C96.2554 98.4434 92 94.1939 92 89H116.114C121.316 89 125.571 93.2495 125.571 98.4434Z" fill="#60D7FF"/>
<path d="M135.027 116.543H101.457C96.1766 116.543 92 112.293 92 107.099H125.492C130.772 107.021 135.027 111.27 135.027 116.543Z" fill="#38A4FF"/>
<path d="M159.142 98.4434H183.256C188.536 98.4434 192.713 94.1939 192.713 89H168.678C163.397 89 159.142 93.2495 159.142 98.4434Z" fill="#60D7FF"/>
<path d="M149.689 116.543H183.181C188.461 116.543 192.638 112.293 192.638 107.099H159.224C153.945 107.021 149.689 111.27 149.689 116.543Z" fill="#38A4FF"/>
<path d="M19.7167 221C-16.2833 223.8 82.3834 220.167 136.217 218L69.7167 196C69.5414 196.754 69.2479 197.595 68.8212 198.5C65.1927 206.195 51.9289 218.495 19.7167 221Z" fill="#2785FF"/>
<defs>
<linearGradient id="paint0_linear_241_512" x1="141.5" y1="49" x2="141.5" y2="218" gradientUnits="userSpaceOnUse">
<stop stop-color="#60D7FF"/>
<stop offset="1" stop-color="#227DFF"/>
</linearGradient>
</defs>
</svg>
